<svg width="71" height="94" viewBox="0 0 71 94" fill="none" xmlns="http://www.w3.org/2000/svg">
<g filter="url(#filter0_ii_5_248)">
<rect x="3" width="63" height="94" rx="6" fill="black"/>
</g>
<rect x="3.5" y="0.5" width="62" height="93" rx="5.5" stroke="black"/>
<path d="M49.3724 16.7252C54.8002 19.2562 58.3152 24.8139 59.4896 31.9498C60.6631 39.0797 59.4711 47.6794 55.5772 56.03C51.6832 64.3807 45.8614 70.8222 39.6452 74.5064C33.4238 78.1936 26.907 79.0734 21.4792 76.5424C16.0516 74.0113 12.5374 68.4538 11.3629 61.3182C10.1894 54.1881 11.3817 45.5878 15.2757 37.2371C19.1697 28.8865 24.9912 22.4457 31.2074 18.7615C37.4286 15.0745 43.9448 14.1943 49.3724 16.7252Z" fill="white" stroke="black" stroke-width="2"/>
<mask id="path-4-outside-1_5_248" maskUnits="userSpaceOnUse" x="53" y="3" width="9" height="11" fill="black">
<rect fill="white" x="53" y="3" width="9" height="11"/>
<path d="M55.2988 10.0059L59.0723 4.89062H59.7871V10.0059H60.5137V11.2188H59.7871V13H58.1758V11.2188H55.2988V10.0059ZM55.8672 10.0059H58.1758V6.87109L55.8672 10.0059Z"/>
</mask>
<path d="M55.2988 10.0059L59.0723 4.89062H59.7871V10.0059H60.5137V11.2188H59.7871V13H58.1758V11.2188H55.2988V10.0059ZM55.8672 10.0059H58.1758V6.87109L55.8672 10.0059Z" fill="white"/>
<path d="M55.2988 10.0059L54.4941 9.41222L54.2988 9.67692V10.0059H55.2988ZM59.0723 4.89062V3.89062H58.5673L58.2675 4.29699L59.0723 4.89062ZM59.7871 4.89062H60.7871V3.89062H59.7871V4.89062ZM59.7871 10.0059H58.7871V11.0059H59.7871V10.0059ZM60.5137 10.0059H61.5137V9.00586H60.5137V10.0059ZM60.5137 11.2188V12.2188H61.5137V11.2188H60.5137ZM59.7871 11.2188V10.2188H58.7871V11.2188H59.7871ZM59.7871 13V14H60.7871V13H59.7871ZM58.1758 13H57.1758V14H58.1758V13ZM58.1758 11.2188H59.1758V10.2188H58.1758V11.2188ZM55.2988 11.2188H54.2988V12.2188H55.2988V11.2188ZM55.8672 10.0059L55.062 9.41287L53.8888 11.0059H55.8672V10.0059ZM58.1758 10.0059V11.0059H59.1758V10.0059H58.1758ZM58.1758 6.87109H59.1758V3.82687L57.3706 6.2781L58.1758 6.87109ZM55.2988 10.0059L56.1036 10.5995L59.877 5.48426L59.0723 4.89062L58.2675 4.29699L54.4941 9.41222L55.2988 10.0059ZM59.0723 4.89062V5.89062H59.7871V4.89062V3.89062H59.0723V4.89062ZM59.7871 4.89062H58.7871V10.0059H59.7871H60.7871V4.89062H59.7871ZM59.7871 10.0059V11.0059H60.5137V10.0059V9.00586H59.7871V10.0059ZM60.5137 10.0059H59.5137V11.2188H60.5137H61.5137V10.0059H60.5137ZM60.5137 11.2188V10.2188H59.7871V11.2188V12.2188H60.5137V11.2188ZM59.7871 11.2188H58.7871V13H59.7871H60.7871V11.2188H59.7871ZM59.7871 13V12H58.1758V13V14H59.7871V13ZM58.1758 13H59.1758V11.2188H58.1758H57.1758V13H58.1758ZM58.1758 11.2188V10.2188H55.2988V11.2188V12.2188H58.1758V11.2188ZM55.2988 11.2188H56.2988V10.0059H55.2988H54.2988V11.2188H55.2988ZM55.8672 10.0059V11.0059H58.1758V10.0059V9.00586H55.8672V10.0059ZM58.1758 10.0059H59.1758V6.87109H58.1758H57.1758V10.0059H58.1758ZM58.1758 6.87109L57.3706 6.2781L55.062 9.41287L55.8672 10.0059L56.6724 10.5989L58.981 7.46409L58.1758 6.87109Z" fill="black" mask="url(#path-4-outside-1_5_248)"/>
<path d="M51.1758 6.73047H53.2896V4.62109H53.8652V6.73047H55.979V7.31055H53.8652V9.40234H53.2896V7.31055H51.1758V6.73047Z" fill="white"/>
<g filter="url(#filter1_d_5_248)">
<rect x="25" y="33" width="14" height="19" rx="1" fill="#7FCA4D"/>
<rect x="25.25" y="33.25" width="13.5" height="18.5" rx="0.75" stroke="black" stroke-width="0.5"/>
</g>
<g filter="url(#filter2_d_5_248)">
<rect x="41" y="25" width="14" height="19" rx="1" fill="#024DDA"/>
<rect x="41.25" y="25.25" width="13.5" height="18.5" rx="0.75" stroke="black" stroke-width="0.5"/>
</g>
<g filter="url(#filter3_d_5_248)">
<rect x="35" y="37" width="14" height="19" rx="1" fill="#FFC300"/>
<rect x="35.25" y="37.25" width="13.5" height="18.5" rx="0.75" stroke="black" stroke-width="0.5"/>
</g>
<g filter="url(#filter4_d_5_248)">
<rect x="19" y="46" width="14" height="19" rx="1" fill="#FF0000"/>
<rect x="19.25" y="46.25" width="13.5" height="18.5" rx="0.75" stroke="black" stroke-width="0.5"/>
</g>
<mask id="path-15-inside-2_5_248" fill="white">
<path d="M40.4694 46.2638C41.8172 48.0141 41.4911 50.5253 39.7408 51.8732L33.3541 56.7912L34.9303 58.7462C35.4161 59.349 35.0625 60.2516 34.2965 60.3634L21.1451 62.2785C20.3924 62.3881 19.7974 61.6509 20.0641 60.9386L24.7301 48.4943C25.0019 47.7692 25.959 47.615 26.4449 48.2179L28.778 51.1134L38.4625 43.6564L40.4694 46.2638Z"/>
</mask>
<path d="M40.4694 46.2638C41.8172 48.0141 41.4911 50.5253 39.7408 51.8732L33.3541 56.7912L34.9303 58.7462C35.4161 59.349 35.0625 60.2516 34.2965 60.3634L21.1451 62.2785C20.3924 62.3881 19.7974 61.6509 20.0641 60.9386L24.7301 48.4943C25.0019 47.7692 25.959 47.615 26.4449 48.2179L28.778 51.1134L38.4625 43.6564L40.4694 46.2638Z" fill="white"/>
<path d="M40.4694 46.2638L39.6769 46.8737L39.6771 46.8739L40.4694 46.2638ZM39.7408 51.8732L40.351 52.6655L40.351 52.6655L39.7408 51.8732ZM33.3541 56.7912L32.744 55.9988L31.9338 56.6227L32.5756 57.4188L33.3541 56.7912ZM34.9303 58.7462L35.7089 58.1187L35.7088 58.1186L34.9303 58.7462ZM34.2965 60.3634L34.4406 61.353L34.4409 61.3529L34.2965 60.3634ZM21.1451 62.2785L21.001 61.2889L21.001 61.2889L21.1451 62.2785ZM20.0641 60.9386L19.1277 60.5875L19.1276 60.588L20.0641 60.9386ZM24.7301 48.4943L25.6664 48.8454L25.6665 48.8453L24.7301 48.4943ZM26.4449 48.2179L27.2236 47.5905L27.2235 47.5904L26.4449 48.2179ZM28.778 51.1134L27.9993 51.7408L28.613 52.5025L29.388 51.9058L28.778 51.1134ZM38.4625 43.6564L39.255 43.0465L38.6449 42.2538L37.8524 42.8641L38.4625 43.6564ZM40.4694 46.2638L39.6771 46.8739C40.688 48.1867 40.4434 50.07 39.1307 51.0809L39.7408 51.8732L40.351 52.6655C42.5389 50.9806 42.9464 47.8415 41.2617 45.6537L40.4694 46.2638ZM39.7408 51.8732L39.1307 51.0809L32.744 55.9988L33.3541 56.7912L33.9642 57.5835L40.351 52.6655L39.7408 51.8732ZM33.3541 56.7912L32.5756 57.4188L34.1518 59.3739L34.9303 58.7462L35.7088 58.1186L34.1326 56.1635L33.3541 56.7912ZM34.9303 58.7462L34.1517 59.3738L34.1521 59.3739L34.2965 60.3634L34.4409 61.3529C35.9737 61.1292 36.6801 59.3237 35.7089 58.1187L34.9303 58.7462ZM34.2965 60.3634L34.1524 59.3739L21.001 61.2889L21.1451 62.2785L21.2892 63.268L34.4406 61.353L34.2965 60.3634ZM21.1451 62.2785L21.001 61.2889L21.0006 61.2892L20.0641 60.9386L19.1276 60.588C18.5939 62.0134 19.7848 63.4872 21.2893 63.268L21.1451 62.2785ZM20.0641 60.9386L21.0004 61.2897L25.6664 48.8454L24.7301 48.4943L23.7938 48.1432L19.1277 60.5875L20.0641 60.9386ZM24.7301 48.4943L25.6665 48.8453L25.6664 48.8454L26.4449 48.2179L27.2235 47.5904C26.2519 46.3848 24.3374 46.693 23.7937 48.1432L24.7301 48.4943ZM26.4449 48.2179L25.6663 48.8453L27.9993 51.7408L28.778 51.1134L29.5566 50.486L27.2236 47.5905L26.4449 48.2179ZM28.778 51.1134L29.388 51.9058L39.0726 44.4487L38.4625 43.6564L37.8524 42.8641L28.1679 50.3211L28.778 51.1134ZM38.4625 43.6564L37.6701 44.2663L39.6769 46.8737L40.4694 46.2638L41.2618 45.6539L39.255 43.0465L38.4625 43.6564Z" fill="black" mask="url(#path-15-inside-2_5_248)"/>
<mask id="path-17-inside-3_5_248" fill="white">
<path d="M26.7271 48.0265C25.3792 46.2762 25.7053 43.765 27.4556 42.4171L33.8423 37.4992L32.2661 35.5441C31.7803 34.9413 32.1338 34.0386 32.8999 33.9269L46.0513 32.0109C46.8041 31.9013 47.3984 32.6393 47.1314 33.3517L42.4663 45.796C42.1944 46.521 41.2374 46.6752 40.7515 46.0724L38.4175 43.1769L28.7339 50.6329L26.7271 48.0265Z"/>
</mask>
<path d="M26.7271 48.0265C25.3792 46.2762 25.7053 43.765 27.4556 42.4171L33.8423 37.4992L32.2661 35.5441C31.7803 34.9413 32.1338 34.0386 32.8999 33.9269L46.0513 32.0109C46.8041 31.9013 47.3984 32.6393 47.1314 33.3517L42.4663 45.796C42.1944 46.521 41.2374 46.6752 40.7515 46.0724L38.4175 43.1769L28.7339 50.6329L26.7271 48.0265Z" fill="white"/>
<path d="M26.7271 48.0265L27.5194 47.4164L27.5194 47.4164L26.7271 48.0265ZM27.4556 42.4171L26.8455 41.6248L26.8455 41.6248L27.4556 42.4171ZM33.8423 37.4992L34.4524 38.2915L35.2626 37.6676L34.6208 36.8715L33.8423 37.4992ZM32.2661 35.5441L31.4875 36.1716L31.4876 36.1717L32.2661 35.5441ZM32.8999 33.9269L32.7558 32.9373L32.7556 32.9374L32.8999 33.9269ZM46.0513 32.0109L45.9072 31.0213L45.9071 31.0213L46.0513 32.0109ZM47.1314 33.3517L46.195 33.0007L46.195 33.0007L47.1314 33.3517ZM42.4663 45.796L43.4026 46.1472L43.4027 46.1471L42.4663 45.796ZM40.7515 46.0724L41.5301 45.4449L41.53 45.4448L40.7515 46.0724ZM38.4175 43.1769L39.1961 42.5493L38.5823 41.7879L37.8074 42.3846L38.4175 43.1769ZM28.7339 50.6329L27.9416 51.243L28.5516 52.0354L29.344 51.4253L28.7339 50.6329ZM26.7271 48.0265L27.5194 47.4164C26.5084 46.1036 26.753 44.2203 28.0657 43.2094L27.4556 42.4171L26.8455 41.6248C24.6575 43.3097 24.25 46.4488 25.9348 48.6366L26.7271 48.0265ZM27.4556 42.4171L28.0657 43.2094L34.4524 38.2915L33.8423 37.4992L33.2322 36.7068L26.8455 41.6248L27.4556 42.4171ZM33.8423 37.4992L34.6208 36.8715L33.0446 34.9165L32.2661 35.5441L31.4876 36.1717L33.0638 38.1268L33.8423 37.4992ZM32.2661 35.5441L33.0447 34.9165L33.0443 34.9164L32.8999 33.9269L32.7556 32.9374C31.2225 33.161 30.5164 34.9667 31.4875 36.1716L32.2661 35.5441ZM32.8999 33.9269L33.0441 34.9164L46.1955 33.0004L46.0513 32.0109L45.9071 31.0213L32.7558 32.9373L32.8999 33.9269ZM46.0513 32.0109L46.1954 33.0004L46.195 33.0007L47.1314 33.3517L48.0677 33.7027C48.6016 32.2787 47.4137 30.802 45.9072 31.0213L46.0513 32.0109ZM47.1314 33.3517L46.195 33.0007L41.53 45.445L42.4663 45.796L43.4027 46.1471L48.0677 33.7027L47.1314 33.3517ZM42.4663 45.796L41.53 45.4449L41.5301 45.4449L40.7515 46.0724L39.9729 46.6999C40.9447 47.9056 42.8589 47.597 43.4026 46.1472L42.4663 45.796ZM40.7515 46.0724L41.53 45.4448L39.1961 42.5493L38.4175 43.1769L37.6389 43.8045L39.9729 46.7L40.7515 46.0724ZM38.4175 43.1769L37.8074 42.3846L28.1238 49.8406L28.7339 50.6329L29.344 51.4253L39.0276 43.9692L38.4175 43.1769ZM28.7339 50.6329L29.5263 50.0229L27.5194 47.4164L26.7271 48.0265L25.9347 48.6366L27.9416 51.243L28.7339 50.6329Z" fill="black" mask="url(#path-17-inside-3_5_248)"/>
<mask id="path-19-inside-4_5_248" fill="white">
<path d="M47.5072 7.17138C48.4172 8.35317 48.1968 10.0494 47.015 10.9595L45.601 12.0474C45.9332 12.6405 45.579 13.417 44.8715 13.52L42.1459 13.9165C41.3931 14.0261 40.798 13.289 41.0648 12.5767L42.0316 9.99657C42.3034 9.27154 43.2615 9.11733 43.7475 9.72021L43.9193 9.9331L47.5072 7.17138Z"/>
</mask>
<path d="M47.5072 7.17138C48.4172 8.35317 48.1968 10.0494 47.015 10.9595L45.601 12.0474C45.9332 12.6405 45.579 13.417 44.8715 13.52L42.1459 13.9165C41.3931 14.0261 40.798 13.289 41.0648 12.5767L42.0316 9.99657C42.3034 9.27154 43.2615 9.11733 43.7475 9.72021L43.9193 9.9331L47.5072 7.17138Z" fill="white"/>
<path d="M47.5072 7.17138L47.9034 6.86632L47.5984 6.47024L47.2022 6.77516L47.5072 7.17138ZM47.015 10.9595L47.3199 11.3558L47.3201 11.3556L47.015 10.9595ZM45.601 12.0474L45.2961 11.6511L44.9536 11.9146L45.1647 12.2917L45.601 12.0474ZM44.8715 13.52L44.9435 14.0148L44.9435 14.0148L44.8715 13.52ZM42.1459 13.9165L42.0739 13.4217L42.0738 13.4217L42.1459 13.9165ZM41.0648 12.5767L40.5966 12.4012L40.5966 12.4013L41.0648 12.5767ZM42.0316 9.99657L41.5635 9.82106L41.5634 9.82113L42.0316 9.99657ZM43.7475 9.72021L43.3582 10.034L43.3584 10.0343L43.7475 9.72021ZM43.9193 9.9331L43.5303 10.2472L43.8372 10.6273L44.2243 10.3293L43.9193 9.9331ZM47.5072 7.17138L47.1111 7.47644C47.8526 8.43941 47.673 9.82173 46.71 10.5633L47.015 10.9595L47.3201 11.3556C48.7206 10.2771 48.9819 8.26692 47.9034 6.86632L47.5072 7.17138ZM47.015 10.9595L46.7102 10.5632L45.2961 11.6511L45.601 12.0474L45.9059 12.4436L47.3199 11.3558L47.015 10.9595ZM45.601 12.0474L45.1647 12.2917C45.3307 12.588 45.1497 12.9742 44.7994 13.0252L44.8715 13.52L44.9435 14.0148C46.0083 13.8597 46.5356 12.693 46.0372 11.8031L45.601 12.0474ZM44.8715 13.52L44.7995 13.0252L42.0739 13.4217L42.1459 13.9165L42.2179 14.4113L44.9435 14.0148L44.8715 13.52ZM42.1459 13.9165L42.0738 13.4217C41.6968 13.4766 41.3999 13.1076 41.5331 12.752L41.0648 12.5767L40.5966 12.4013C40.1962 13.4703 41.0894 14.5757 42.218 14.4113L42.1459 13.9165ZM41.0648 12.5767L41.533 12.7521L42.4998 10.172L42.0316 9.99657L41.5634 9.82113L40.5966 12.4012L41.0648 12.5767ZM42.0316 9.99657L42.4998 10.1721C42.6356 9.80982 43.115 9.73233 43.3582 10.034L43.7475 9.72021L44.1367 9.40644C43.4081 8.50234 41.9713 8.73325 41.5635 9.82106L42.0316 9.99657ZM43.7475 9.72021L43.3584 10.0343L43.5303 10.2472L43.9193 9.9331L44.3084 9.61901L44.1365 9.40612L43.7475 9.72021ZM43.9193 9.9331L44.2243 10.3293L47.8122 7.56759L47.5072 7.17138L47.2022 6.77516L43.6143 9.53688L43.9193 9.9331Z" fill="black" mask="url(#path-19-inside-4_5_248)"/>
<mask id="path-21-inside-5_5_248" fill="white">
<path d="M43.9026 9.756C42.9927 8.57429 43.2132 6.87896 44.3948 5.96889L45.8088 4.881C45.4761 4.28774 45.8306 3.51046 46.5383 3.40737L49.2639 3.01089C50.0168 2.90122 50.612 3.63931 50.345 4.35171L49.3772 6.93081C49.1054 7.65585 48.1483 7.81005 47.6624 7.20718L47.4905 6.99429L43.9026 9.756Z"/>
</mask>
<path d="M43.9026 9.756C42.9927 8.57429 43.2132 6.87896 44.3948 5.96889L45.8088 4.881C45.4761 4.28774 45.8306 3.51046 46.5383 3.40737L49.2639 3.01089C50.0168 2.90122 50.612 3.63931 50.345 4.35171L49.3772 6.93081C49.1054 7.65585 48.1483 7.81005 47.6624 7.20718L47.4905 6.99429L43.9026 9.756Z" fill="white"/>
<path d="M43.9026 9.756L43.5064 10.061L43.8114 10.4572L44.2076 10.1522L43.9026 9.756ZM44.3948 5.96889L44.0899 5.5726L44.0897 5.57277L44.3948 5.96889ZM45.8088 4.881L46.1137 5.2773L46.4565 5.0136L46.2449 4.63642L45.8088 4.881ZM46.5383 3.40737L46.4664 2.91258L46.4663 2.91259L46.5383 3.40737ZM49.2639 3.01089L49.3359 3.50568L49.336 3.50567L49.2639 3.01089ZM50.345 4.35171L50.8131 4.52737L50.8132 4.52723L50.345 4.35171ZM49.3772 6.93081L48.9091 6.75515L48.909 6.75529L49.3772 6.93081ZM47.6624 7.20718L48.0517 6.89341L48.0514 6.89309L47.6624 7.20718ZM47.4905 6.99429L47.8795 6.6802L47.5726 6.30008L47.1855 6.59807L47.4905 6.99429ZM43.9026 9.756L44.2988 9.45097C43.5574 8.48811 43.737 7.10666 44.6999 6.36502L44.3948 5.96889L44.0897 5.57277C42.6895 6.65126 42.428 8.66047 43.5064 10.061L43.9026 9.756ZM44.3948 5.96889L44.6997 6.36519L46.1137 5.2773L45.8088 4.881L45.504 4.48471L44.0899 5.5726L44.3948 5.96889ZM45.8088 4.881L46.2449 4.63642C46.0787 4.3401 46.2598 3.95321 46.6104 3.90215L46.5383 3.40737L46.4663 2.91259C45.4013 3.06772 44.8735 4.23539 45.3727 5.12559L45.8088 4.881ZM46.5383 3.40737L46.6103 3.90216L49.3359 3.50568L49.2639 3.01089L49.1919 2.51609L46.4664 2.91258L46.5383 3.40737ZM49.2639 3.01089L49.336 3.50567C49.7127 3.45079 50.0102 3.82026 49.8768 4.17619L50.345 4.35171L50.8132 4.52723C51.2139 3.45836 50.3209 2.35166 49.1918 2.51611L49.2639 3.01089ZM50.345 4.35171L49.8768 4.17605L48.9091 6.75515L49.3772 6.93081L49.8453 7.10647L50.8131 4.52737L50.345 4.35171ZM49.3772 6.93081L48.909 6.75529C48.7732 7.11771 48.2947 7.19493 48.0517 6.89341L47.6624 7.20718L47.2731 7.52094C48.0019 8.42517 49.4376 8.19399 49.8454 7.10633L49.3772 6.93081ZM47.6624 7.20718L48.0514 6.89309L47.8795 6.6802L47.4905 6.99429L47.1014 7.30837L47.2733 7.52126L47.6624 7.20718ZM47.4905 6.99429L47.1855 6.59807L43.5976 9.35979L43.9026 9.756L44.2076 10.1522L47.7955 7.3905L47.4905 6.99429Z" fill="black" mask="url(#path-21-inside-5_5_248)"/>
<mask id="path-23-outside-6_5_248" maskUnits="userSpaceOnUse" x="6.00046" y="80" width="9" height="11" fill="black">
<rect fill="white" x="6.00046" y="80" width="9" height="11"/>
<path d="M12.7016 83.9941L8.92819 89.1094H8.21335V83.9941H7.48679V82.7812H8.21335V81H9.82468V82.7812H12.7016V83.9941ZM12.1333 83.9941H9.82468V87.1289L12.1333 83.9941Z"/>
</mask>
<path d="M12.7016 83.9941L8.92819 89.1094H8.21335V83.9941H7.48679V82.7812H8.21335V81H9.82468V82.7812H12.7016V83.9941ZM12.1333 83.9941H9.82468V87.1289L12.1333 83.9941Z" fill="white"/>
<path d="M12.7016 83.9941L13.5064 84.5878L13.7016 84.3231V83.9941H12.7016ZM8.92819 89.1094V90.1094H9.43316L9.73292 89.703L8.92819 89.1094ZM8.21335 89.1094H7.21335V90.1094H8.21335V89.1094ZM8.21335 83.9941H9.21335V82.9941H8.21335V83.9941ZM7.48679 83.9941H6.48679V84.9941H7.48679V83.9941ZM7.48679 82.7812V81.7812H6.48679V82.7812H7.48679ZM8.21335 82.7812V83.7812H9.21335V82.7812H8.21335ZM8.21335 81V80H7.21335V81H8.21335ZM9.82468 81H10.8247V80H9.82468V81ZM9.82468 82.7812H8.82468V83.7812H9.82468V82.7812ZM12.7016 82.7812H13.7016V81.7812H12.7016V82.7812ZM12.1333 83.9941L12.9385 84.5871L14.1116 82.9941H12.1333V83.9941ZM9.82468 83.9941V82.9941H8.82468V83.9941H9.82468ZM9.82468 87.1289H8.82468V90.1731L10.6299 87.7219L9.82468 87.1289ZM12.7016 83.9941L11.8969 83.4005L8.12346 88.5157L8.92819 89.1094L9.73292 89.703L13.5064 84.5878L12.7016 83.9941ZM8.92819 89.1094V88.1094H8.21335V89.1094V90.1094H8.92819V89.1094ZM8.21335 89.1094H9.21335V83.9941H8.21335H7.21335V89.1094H8.21335ZM8.21335 83.9941V82.9941H7.48679V83.9941V84.9941H8.21335V83.9941ZM7.48679 83.9941H8.48679V82.7812H7.48679H6.48679V83.9941H7.48679ZM7.48679 82.7812V83.7812H8.21335V82.7812V81.7812H7.48679V82.7812ZM8.21335 82.7812H9.21335V81H8.21335H7.21335V82.7812H8.21335ZM8.21335 81V82H9.82468V81V80H8.21335V81ZM9.82468 81H8.82468V82.7812H9.82468H10.8247V81H9.82468ZM9.82468 82.7812V83.7812H12.7016V82.7812V81.7812H9.82468V82.7812ZM12.7016 82.7812H11.7016V83.9941H12.7016H13.7016V82.7812H12.7016ZM12.1333 83.9941V82.9941H9.82468V83.9941V84.9941H12.1333V83.9941ZM9.82468 83.9941H8.82468V87.1289H9.82468H10.8247V83.9941H9.82468ZM9.82468 87.1289L10.6299 87.7219L12.9385 84.5871L12.1333 83.9941L11.3281 83.4011L9.01947 86.5359L9.82468 87.1289Z" fill="black" mask="url(#path-23-outside-6_5_248)"/>
<path d="M16.8247 87.2695H14.7109V89.3789H14.1352V87.2695H12.0215V86.6895H14.1352V84.5977H14.7109V86.6895H16.8247V87.2695Z" fill="white"/>
<mask id="path-26-inside-7_5_248" fill="white">
<path d="M20.4936 86.8286C19.5836 85.6468 19.804 83.9506 20.9858 83.0405L22.3989 81.9536C22.0663 81.3605 22.4208 80.5833 23.1284 80.48L25.8549 80.0835C26.6078 79.9739 27.202 80.711 26.935 81.4234L25.9682 84.0034C25.6964 84.7284 24.7393 84.8826 24.2534 84.2798L24.0815 84.0669L20.4936 86.8286Z"/>
</mask>
<path d="M20.4936 86.8286C19.5836 85.6468 19.804 83.9506 20.9858 83.0405L22.3989 81.9536C22.0663 81.3605 22.4208 80.5833 23.1284 80.48L25.8549 80.0835C26.6078 79.9739 27.202 80.711 26.935 81.4234L25.9682 84.0034C25.6964 84.7284 24.7393 84.8826 24.2534 84.2798L24.0815 84.0669L20.4936 86.8286Z" fill="white"/>
<path d="M20.4936 86.8286L20.0975 87.1337L20.4025 87.5298L20.7986 87.2248L20.4936 86.8286ZM20.9858 83.0405L20.681 82.6442L20.6807 82.6444L20.9858 83.0405ZM22.3989 81.9536L22.7037 82.35L23.0465 82.0863L22.835 81.7091L22.3989 81.9536ZM23.1284 80.48L23.0564 79.9852L23.0562 79.9852L23.1284 80.48ZM25.8549 80.0835L25.9269 80.5783L25.927 80.5783L25.8549 80.0835ZM26.935 81.4234L26.4668 81.2479L26.4668 81.2479L26.935 81.4234ZM25.9682 84.0034L26.4364 84.179L26.4364 84.1789L25.9682 84.0034ZM24.2534 84.2798L24.6427 83.966L24.6424 83.9657L24.2534 84.2798ZM24.0815 84.0669L24.4705 83.7528L24.1637 83.3727L23.7765 83.6707L24.0815 84.0669ZM20.4936 86.8286L20.8898 86.5236C20.1482 85.5606 20.3278 84.1783 21.2909 83.4367L20.9858 83.0405L20.6807 82.6444C19.2802 83.7229 19.0189 85.7331 20.0975 87.1337L20.4936 86.8286ZM20.9858 83.0405L21.2906 83.4369L22.7037 82.35L22.3989 81.9536L22.094 81.5573L20.681 82.6442L20.9858 83.0405ZM22.3989 81.9536L22.835 81.7091C22.669 81.413 22.85 81.0259 23.2006 80.9748L23.1284 80.48L23.0562 79.9852C21.9917 80.1406 21.4636 81.308 21.9628 82.1982L22.3989 81.9536ZM23.1284 80.48L23.2003 80.9748L25.9269 80.5783L25.8549 80.0835L25.783 79.5887L23.0564 79.9852L23.1284 80.48ZM25.8549 80.0835L25.927 80.5783C26.3035 80.5235 26.6003 80.8918 26.4668 81.2479L26.935 81.4234L27.4032 81.5988C27.8037 80.5302 26.9121 79.4243 25.7829 79.5887L25.8549 80.0835ZM26.935 81.4234L26.4668 81.2479L25.5 83.828L25.9682 84.0034L26.4364 84.1789L27.4032 81.5988L26.935 81.4234ZM25.9682 84.0034L25.5001 83.8279C25.3641 84.1903 24.8856 84.2675 24.6427 83.966L24.2534 84.2798L23.8641 84.5936C24.5929 85.4978 26.0286 85.2664 26.4364 84.179L25.9682 84.0034ZM24.2534 84.2798L24.6424 83.9657L24.4705 83.7528L24.0815 84.0669L23.6925 84.381L23.8643 84.5939L24.2534 84.2798ZM24.0815 84.0669L23.7765 83.6707L20.1886 86.4324L20.4936 86.8286L20.7986 87.2248L24.3865 84.4631L24.0815 84.0669Z" fill="black" mask="url(#path-26-inside-7_5_248)"/>
<mask id="path-28-inside-8_5_248" fill="white">
<path d="M24.0974 84.244C25.0074 85.4258 24.787 87.121 23.6052 88.0311L22.1921 89.119C22.5246 89.7122 22.1702 90.4895 21.4626 90.5926L18.736 90.9891C17.9832 91.0987 17.3889 90.3606 17.656 89.6483L18.6228 87.0692C18.8946 86.3441 19.8517 86.1899 20.3376 86.7928L20.5095 87.0057L24.0974 84.244Z"/>
</mask>
<path d="M24.0974 84.244C25.0074 85.4258 24.787 87.121 23.6052 88.0311L22.1921 89.119C22.5246 89.7122 22.1702 90.4895 21.4626 90.5926L18.736 90.9891C17.9832 91.0987 17.3889 90.3606 17.656 89.6483L18.6228 87.0692C18.8946 86.3441 19.8517 86.1899 20.3376 86.7928L20.5095 87.0057L24.0974 84.244Z" fill="white"/>
<path d="M24.0974 84.244L24.4935 83.9389L24.1885 83.5429L23.7924 83.8478L24.0974 84.244ZM23.6052 88.0311L23.9102 88.4273L23.9103 88.4272L23.6052 88.0311ZM22.1921 89.119L21.8871 88.7228L21.5446 88.9865L21.7559 89.3635L22.1921 89.119ZM21.4626 90.5926L21.5346 91.0874L21.5347 91.0874L21.4626 90.5926ZM18.736 90.9891L18.6641 90.4943L18.664 90.4943L18.736 90.9891ZM17.656 89.6483L18.1241 89.8238L18.1242 89.8238L17.656 89.6483ZM18.6228 87.0692L18.1546 86.8937L18.1546 86.8937L18.6228 87.0692ZM20.3376 86.7928L19.9483 87.1066L19.9486 87.1069L20.3376 86.7928ZM20.5095 87.0057L20.1204 87.3198L20.4273 87.6999L20.8145 87.4019L20.5095 87.0057ZM24.0974 84.244L23.7012 84.5491C24.4428 85.512 24.2632 86.8933 23.3001 87.6349L23.6052 88.0311L23.9103 88.4272C25.3108 87.3488 25.5721 85.3396 24.4935 83.9389L24.0974 84.244ZM23.6052 88.0311L23.3002 87.6349L21.8871 88.7228L22.1921 89.119L22.4971 89.5152L23.9102 88.4273L23.6052 88.0311ZM22.1921 89.119L21.7559 89.3635C21.9221 89.6599 21.7409 90.0468 21.3905 90.0978L21.4626 90.5926L21.5347 91.0874C22.5996 90.9322 23.1271 89.7645 22.6283 88.8745L22.1921 89.119ZM21.4626 90.5926L21.3907 90.0978L18.6641 90.4943L18.736 90.9891L18.808 91.4839L21.5346 91.0874L21.4626 90.5926ZM18.736 90.9891L18.664 90.4943C18.288 90.5491 17.9905 90.1803 18.1241 89.8238L17.656 89.6483L17.1878 89.4728C16.7873 90.541 17.6785 91.6483 18.8081 91.4839L18.736 90.9891ZM17.656 89.6483L18.1242 89.8238L19.091 87.2447L18.6228 87.0692L18.1546 86.8937L17.1878 89.4728L17.656 89.6483ZM18.6228 87.0692L19.0909 87.2447C19.2268 86.8823 19.7053 86.8051 19.9483 87.1066L20.3376 86.7928L20.7269 86.479C19.9981 85.5748 18.5623 85.806 18.1546 86.8937L18.6228 87.0692ZM20.3376 86.7928L19.9486 87.1069L20.1204 87.3198L20.5095 87.0057L20.8985 86.6916L20.7266 86.4787L20.3376 86.7928ZM20.5095 87.0057L20.8145 87.4019L24.4024 84.6402L24.0974 84.244L23.7924 83.8478L20.2045 86.6095L20.5095 87.0057Z" fill="black" mask="url(#path-28-inside-8_5_248)"/>
<defs>
<filter id="filter0_ii_5_248" x="-1" y="-4" width="71" height="102" filterUnits="userSpaceOnUse" color-interpolation-filters="sRGB">
<feFlood flood-opacity="0" result="BackgroundImageFix"/>
<feBlend mode="normal" in="SourceGraphic" in2="BackgroundImageFix" result="shape"/>
<feColorMatrix in="SourceAlpha" type="matrix" values="0 0 0 0 0 0 0 0 0 0 0 0 0 0 0 0 0 0 127 0" result="hardAlpha"/>
<feOffset dx="4" dy="4"/>
<feGaussianBlur stdDeviation="2"/>
<feComposite in2="hardAlpha" operator="arithmetic" k2="-1" k3="1"/>
<feColorMatrix type="matrix" values="0 0 0 0 0 0 0 0 0 0 0 0 0 0 0 0 0 0 0.25 0"/>
<feBlend mode="normal" in2="shape" result="effect1_innerShadow_5_248"/>
<feColorMatrix in="SourceAlpha" type="matrix" values="0 0 0 0 0 0 0 0 0 0 0 0 0 0 0 0 0 0 127 0" result="hardAlpha"/>
<feOffset dx="-4" dy="-4"/>
<feGaussianBlur stdDeviation="2"/>
<feComposite in2="hardAlpha" operator="arithmetic" k2="-1" k3="1"/>
<feColorMatrix type="matrix" values="0 0 0 0 0 0 0 0 0 0 0 0 0 0 0 0 0 0 0.25 0"/>
<feBlend mode="normal" in2="effect1_innerShadow_5_248" result="effect2_innerShadow_5_248"/>
</filter>
<filter id="filter1_d_5_248" x="24" y="33" width="15" height="20" filterUnits="userSpaceOnUse" color-interpolation-filters="sRGB">
<feFlood flood-opacity="0" result="BackgroundImageFix"/>
<feColorMatrix in="SourceAlpha" type="matrix" values="0 0 0 0 0 0 0 0 0 0 0 0 0 0 0 0 0 0 127 0" result="hardAlpha"/>
<feOffset dx="-1" dy="1"/>
<feComposite in2="hardAlpha" operator="out"/>
<feColorMatrix type="matrix" values="0 0 0 0 0 0 0 0 0 0 0 0 0 0 0 0 0 0 1 0"/>
<feBlend mode="normal" in2="BackgroundImageFix" result="effect1_dropShadow_5_248"/>
<feBlend mode="normal" in="SourceGraphic" in2="effect1_dropShadow_5_248" result="shape"/>
</filter>
<filter id="filter2_d_5_248" x="40" y="25" width="15" height="20" filterUnits="userSpaceOnUse" color-interpolation-filters="sRGB">
<feFlood flood-opacity="0" result="BackgroundImageFix"/>
<feColorMatrix in="SourceAlpha" type="matrix" values="0 0 0 0 0 0 0 0 0 0 0 0 0 0 0 0 0 0 127 0" result="hardAlpha"/>
<feOffset dx="-1" dy="1"/>
<feComposite in2="hardAlpha" operator="out"/>
<feColorMatrix type="matrix" values="0 0 0 0 0 0 0 0 0 0 0 0 0 0 0 0 0 0 1 0"/>
<feBlend mode="normal" in2="BackgroundImageFix" result="effect1_dropShadow_5_248"/>
<feBlend mode="normal" in="SourceGraphic" in2="effect1_dropShadow_5_248" result="shape"/>
</filter>
<filter id="filter3_d_5_248" x="34" y="37" width="15" height="20" filterUnits="userSpaceOnUse" color-interpolation-filters="sRGB">
<feFlood flood-opacity="0" result="BackgroundImageFix"/>
<feColorMatrix in="SourceAlpha" type="matrix" values="0 0 0 0 0 0 0 0 0 0 0 0 0 0 0 0 0 0 127 0" result="hardAlpha"/>
<feOffset dx="-1" dy="1"/>
<feComposite in2="hardAlpha" operator="out"/>
<feColorMatrix type="matrix" values="0 0 0 0 0 0 0 0 0 0 0 0 0 0 0 0 0 0 1 0"/>
<feBlend mode="normal" in2="BackgroundImageFix" result="effect1_dropShadow_5_248"/>
<feBlend mode="normal" in="SourceGraphic" in2="effect1_dropShadow_5_248" result="shape"/>
</filter>
<filter id="filter4_d_5_248" x="18" y="46" width="15" height="20" filterUnits="userSpaceOnUse" color-interpolation-filters="sRGB">
<feFlood flood-opacity="0" result="BackgroundImageFix"/>
<feColorMatrix in="SourceAlpha" type="matrix" values="0 0 0 0 0 0 0 0 0 0 0 0 0 0 0 0 0 0 127 0" result="hardAlpha"/>
<feOffset dx="-1" dy="1"/>
<feComposite in2="hardAlpha" operator="out"/>
<feColorMatrix type="matrix" values="0 0 0 0 0 0 0 0 0 0 0 0 0 0 0 0 0 0 1 0"/>
<feBlend mode="normal" in2="BackgroundImageFix" result="effect1_dropShadow_5_248"/>
<feBlend mode="normal" in="SourceGraphic" in2="effect1_dropShadow_5_248" result="shape"/>
</filter>
</defs>
</svg>
